<svg viewBox="0 0 2048 1078" width="1200" height="632">
<path transform="translate(0)" d="m0 0h2048v1077l-2048 1z" fill="#B21C42"/>
<path transform="translate(0)" d="m0 0h2048v414h-1229v166l-12 1-807-1z" fill="#093160"/>
<path transform="translate(0,829)" d="m0 0h2048v248l-2048 1z" fill="#B21C42"/>
<path transform="translate(819)" d="m0 0h1229v166h-1228l-1-1z" fill="#B21C42"/>
<path transform="translate(0,994)" d="m0 0h2048v83l-2048 1z" fill="#B21C42"/>
<path transform="translate(0,746)" d="m0 0h2048v83h-2048z" fill="#FDFDFD"/>
<path transform="translate(0,663)" d="m0 0h2048v83h-2048z" fill="#B21C42"/>
<path transform="translate(0,580)" d="m0 0h2048v83h-2048z" fill="#FDFDFD"/>
<path transform="translate(0,912)" d="m0 0h2048v82h-2048z" fill="#FDFDFD"/>
<path transform="translate(880,248)" d="m0 0h1113l55 1v83h-1205l-24-1v-82z" fill="#FDFDFD"/>
<path transform="translate(819,414)" d="m0 0h1229v83h-1229z" fill="#FDFDFD"/>
<path transform="translate(819,83)" d="m0 0h1229v83h-1228l-1-1z" fill="#FDFDFD"/>
<path transform="translate(819,165)" d="m0 0 1229 1v83h-1229z" fill="#B21C42"/>
<path transform="translate(819,331)" d="m0 0 1229 1v82h-1229z" fill="#B21C42"/>
<path transform="translate(750,491)" d="m0 0h2l6 18v3h24l-5 4-12 9h-2l7 21v2l-4-2-14-10-5 2-12 9-3 1 2-9 4-13-15-11-3-3 23-1z" fill="#FDFDFD"/>
<path transform="translate(750,375)" d="m0 0h2l6 18v3h23l-5 5-11 8h-2l7 21v2l-4-2-14-10-5 2-14 10-1-3 6-19-15-11-3-3 23-1z" fill="#FDFDFD"/>
<path transform="translate(750,143)" d="m0 0h2l7 20 23 1-5 4-12 9h-2l7 21v2l-4-2-14-10-5 2-14 10-1-3 6-19-15-11-3-3 23-1z" fill="#FDFDFD"/>
<path transform="translate(67,491)" d="m0 0h2l7 20 23 1-4 4-14 10 6 19-1 3-17-12-5 2-13 10h-2l6-22-13-10-4-4h23l2-9z" fill="#FDFDFD"/>
<path transform="translate(477,491)" d="m0 0h2l6 19v2h23l-5 5-11 8h-2l7 21v2l-4-2-14-10-5 2-14 10-1-3 6-19-15-11-3-3 23-1z" fill="#FDFDFD"/>
<path transform="translate(477,375)" d="m0 0h2l6 18v3h23l-5 5-11 8h-2l7 21v2l-4-2-14-10-5 2-14 10-1-3 6-19-15-11-3-3 23-1z" fill="#FDFDFD"/>
<path transform="translate(136,200)" d="m0 0 2 2 6 18v2h23l-5 5-12 8 1 7 5 16-4-2-13-9-3-1-13 9-5 3 1-7 5-16-4-2-14-10v-1h23l3-11z" fill="#FDFDFD"/>
<path transform="translate(545,201)" d="m0 0h2l7 20 23 1-3 3-15 11 6 19-1 3-17-12-5 2-13 10h-2l6-22-13-10-5-4 23-1z" fill="#FDFDFD"/>
<path transform="translate(477,143)" d="m0 0h2l7 20 22 1-5 5-11 8h-2l7 21v2l-4-2-14-10-5 2-14 10-1-3 6-19-15-11-3-3 23-1z" fill="#FDFDFD"/>
<path transform="translate(750,27)" d="m0 0h2l7 20 23 1-5 4-12 9h-2l7 21v2l-4-2-14-10-5 2-14 10-1-3 6-19-15-11-3-3 23-1z" fill="#FDFDFD"/>
<path transform="translate(477,27)" d="m0 0h2l7 20 22 1-5 5-11 8h-2l7 21v2l-4-2-14-10-5 2-14 10-1-3 6-19-15-11-3-3 23-1z" fill="#FDFDFD"/>
<path transform="translate(477,259)" d="m0 0h2l6 18v3h23l-5 5-11 8h-2l7 21v2l-4-2-14-10-5 2-14 10-1-3 6-19-15-11-3-3 23-1z" fill="#FDFDFD"/>
<path transform="translate(67,259)" d="m0 0h2l7 20 23 1-4 4-14 10 6 19-1 3-17-12-5 2-13 10h-2l3-11 4-12-5-2-13-10v-1h23l2-9z" fill="#FDFDFD"/>
<path transform="translate(545,85)" d="m0 0h2l7 20 23 1-3 3-15 11 6 19-1 3-17-12-5 2-13 10h-2l6-22-13-10-5-4 23-1z" fill="#FDFDFD"/>
<path transform="translate(204,491)" d="m0 0h2l6 19v2h23l-5 5-11 8h-2l7 21v2l-4-2-14-10-5 2-14 10-1-3 6-19-18-13v-1l23-1z" fill="#FDFDFD"/>
<path transform="translate(409,432)" d="m0 0 2 2 6 18v2h23l-5 5-11 8h-2l7 23-4-2-14-10-5 2-14 10-1-3 6-20-4-2-14-10v-1l23-1z" fill="#FDFDFD"/>
<path transform="translate(67,375)" d="m0 0h2l7 20 23 1-4 4-14 10 6 19-1 3-17-12-5 2-13 10h-2l3-11 4-12-5-2-13-10v-1h23l2-9z" fill="#FDFDFD"/>
<path transform="translate(136,316)" d="m0 0 2 2 6 19 23 1-5 5-12 8 1 7 5 16-4-2-13-9-3-1-13 9-5 3 1-7 5-16-4-2-14-10v-1h23l3-11z" fill="#FDFDFD"/>
<path transform="translate(750,259)" d="m0 0h2l6 18v3h23l-5 5-11 8h-2l7 21v2l-4-2-14-10-5 2-14 10-1-2 6-20-15-11-3-3 23-1z" fill="#FDFDFD"/>
<path transform="translate(204,259)" d="m0 0h2l6 19v2h23l-5 5-11 8h-2l7 21v2l-4-2-14-10-5 2-14 10-1-3 6-19-18-13v-1l23-1z" fill="#FDFDFD"/>
<path transform="translate(204,143)" d="m0 0h2l6 19 1 1 22 1-5 5-11 8h-2l7 21v2l-4-2-14-10-5 2-14 10-1-3 6-19-15-11-3-3 23-1z" fill="#FDFDFD"/>
<path transform="translate(67,143)" d="m0 0h2l7 20 23 1-4 4-14 10 6 19-1 3-17-12-5 2-13 10h-2l3-11 4-12-4-2-14-10v-1l22-1z" fill="#FDFDFD"/>
<path transform="translate(136,84)" d="m0 0 2 2 6 18v2h23l-5 5-12 8 1 7 5 16-4-2-14-10-5 2-14 10-1-4 6-19-4-2-14-10v-1h23l3-11z" fill="#FDFDFD"/>
<path transform="translate(136,432)" d="m0 0 2 2 6 19 23 1-5 5-12 8 1 7 5 16-4-2-13-9-3-1-13 9-5 3 1-7 5-16-4-2-14-10v-1l23-1z" fill="#FDFDFD"/>
<path transform="translate(272,433)" d="m0 0h2l7 20 23 1-5 4-13 10 5 17 1 5-7-4-11-8-5 2-13 10h-2l6-22-13-10-5-4 23-1z" fill="#FDFDFD"/>
<path transform="translate(272,317)" d="m0 0h2l7 20 23 1-5 4-13 10 5 17 1 5-7-4-11-8-5 2-13 10h-2l6-22-13-10-5-4 23-1z" fill="#FDFDFD"/>
<path transform="translate(204,27)" d="m0 0h2l6 19v2h23l-5 5-11 8h-2l7 21v2l-4-2-14-10-5 2-14 10-1-3 6-19-15-11-3-3 23-1z" fill="#FDFDFD"/>
<path transform="translate(67,27)" d="m0 0h2l7 20 23 1-4 4-14 10 6 19-1 3-17-12-5 2-13 10h-2l3-11 4-12-4-2-14-10v-1l22-1z" fill="#FDFDFD"/>
<path transform="translate(614,491)" d="m0 0 2 1 6 19 23 1-4 4-13 9 1 7 4 12-1 4-17-12-4 2-14 10-2-1 7-22-4-2-14-10v-1h23l3-11z" fill="#FDFDFD"/>
<path transform="translate(545,433)" d="m0 0h2l7 20 23 1-5 4-13 10 6 19-1 3-17-12-5 2-13 10h-2l6-22-13-10-5-4h24l2-9z" fill="#FDFDFD"/>
<path transform="translate(204,375)" d="m0 0h2l6 19v2h23l-5 5-11 8h-2l7 21v2l-4-2-14-10-5 2-14 10-1-3 6-19-18-13v-1l23-1z" fill="#FDFDFD"/>
<path transform="translate(409,316)" d="m0 0 2 2 6 18v2h23l-5 5-12 8 1 7 5 16-4-2-14-10-5 2-14 10-1-3 5-16v-4l-17-12v-1l23-1z" fill="#FDFDFD"/>
<path transform="translate(545,317)" d="m0 0h2l7 20 23 1-5 4-13 10 6 19-1 3-17-12-5 2-13 10h-2l6-22-13-10-4-4h23l2-9z" fill="#FDFDFD"/>
<path transform="translate(409,200)" d="m0 0 2 2 6 18v2h23l-5 5-12 8 1 7 5 16-4-2-14-10-5 2-14 10-1-3 5-16v-4l-17-12v-1l23-1z" fill="#FDFDFD"/>
<path transform="translate(409,84)" d="m0 0 2 2 6 18v2h23l-5 5-12 8 2 10 4 13-4-2-14-10-5 2-14 10-1-3 5-16v-4l-17-12v-1l23-1z" fill="#FDFDFD"/>
<path transform="translate(340,491)" d="m0 0h2l7 20 23 1-4 4-13 9 1 8 4 12-1 3-17-12-5 2-13 10h-2l3-10 4-13-5-2-13-10v-1h23l3-11z" fill="#FDFDFD"/>
<path transform="translate(614,258)" d="m0 0 2 2 6 19 23 1-4 4-13 9 1 7 4 12-1 4-16-12-4 1-15 11-2-1 7-22-4-2-14-10v-1h23l3-11z" fill="#FDFDFD"/>
<path transform="translate(272,201)" d="m0 0h2l7 20 23 1-5 4-13 10 5 17 1 5-7-4-11-8-5 2-14 10-1-2 6-20-13-10-5-4 23-1z" fill="#FDFDFD"/>
<path transform="translate(272,85)" d="m0 0h2l7 20 23 1-3 3-15 11 5 17 1 5-7-4-11-8-5 2-14 10-1-2 6-20-13-10-5-4 23-1z" fill="#FDFDFD"/>
<path transform="translate(613,27)" d="m0 0 3 1 6 19 23 1-4 4-13 9 1 7 4 12-1 4-16-12-4 1-14 10h-3l7-22-4-2-14-10v-1h23l3-11z" fill="#FDFDFD"/>
<path transform="translate(340,27)" d="m0 0 3 1 6 19 23 1-4 4-13 9 1 8 4 12-1 3-16-12-4 1-14 10h-3l7-22-4-2-14-10v-1l22-1 4-10z" fill="#FDFDFD"/>
<path transform="translate(614,142)" d="m0 0 2 2 6 19 23 1-4 4-13 9 1 7 4 12-1 4-16-12-4 1-14 10h-3l7-22-4-2-14-10v-1h23l3-11z" fill="#FDFDFD"/>
<path transform="translate(341,142)" d="m0 0 2 2 6 19 23 1-4 4-13 9 1 8 4 12-1 3-16-12-4 1-14 10h-3l7-22-4-2-14-10v-1h23l3-11 3-10z" fill="#FDFDFD"/>
<path transform="translate(614,375)" d="m0 0 2 1 6 19 23 1-4 4-13 9 1 7 4 12-1 4-16-12-4 1-15 11-2-1 7-22-4-2-14-10v-1h23l3-11z" fill="#FDFDFD"/>
<path transform="translate(341,258)" d="m0 0 2 2 6 19 23 1-4 4-13 9 1 8 4 12-1 3-16-12-4 1-14 10h-3l7-22-4-2-14-10v-1h23l3-11 3-10z" fill="#FDFDFD"/>
<path transform="translate(682,433)" d="m0 0 2 1 6 18v2h23l-5 5-11 8h-2l7 23-4-2-14-10-5 2-11 8-4 2 2-9 3-10v-4l-17-12v-1l23-1z" fill="#FDFDFD"/>
<path transform="translate(341,375)" d="m0 0 2 2 6 18 23 1-4 4-13 9 1 8 4 12-1 3-17-12-5 2-13 10-2-1 7-22-4-2-14-10v-1h23l3-11z" fill="#FDFDFD"/>
<path transform="translate(682,316)" d="m0 0 2 2 6 18v2h23l-5 5-11 8h-2l7 23-4-2-14-10-5 2-11 8-4 2 2-9 3-10v-4l-17-12v-1l23-1z" fill="#FDFDFD"/>
<path transform="translate(682,200)" d="m0 0 2 1 6 19v2h23l-5 5-11 8h-2l7 23-4-2-14-10-5 2-14 10-1-3 5-16v-4l-17-12v-1l23-1z" fill="#FDFDFD"/>
<path transform="translate(682,84)" d="m0 0 2 2 6 18v2h23l-5 5-11 8h-2l7 23-4-2-14-10-5 2-14 10-1-3 5-16v-4l-17-12v-1l23-1z" fill="#FDFDFD"/>
</svg>
