<svg viewBox="0 0 2048 1368" width="220" height="147">
<path transform="translate(1365)" d="m0 0h683v1365l-152 1h-152l-380-1-1-20v-200l1-1119z" fill="#D13032"/>
<path transform="translate(0)" d="m0 0h683l-1 1099v266l-320 1h-361l-1-1z" fill="#008C4C"/>
<path transform="translate(686)" d="m0 0h677l-1 298v1067h-677l-1-1-1-77 1-1183 1-103z" fill="#FEFEFE"/>
<path transform="translate(679)" d="m0 0h4l-1 1099v266h-99v-1h92l-1-14v-29l2-17 1-3v-68l-1-37-1-103-2-21-1-12-1-7-1-30v-22l-1-45 1-24v-17l-1-48v-33l-1-29 1-29 1-14v-375l2-46 2-39 1-73 1-193 1-20z" fill="#009953"/>
<path transform="translate(680)" d="m0 0h3l-1 1099-1 216h-1l-1-226v-1061z" fill="#FEFEFE"/>
<path transform="translate(1364,26)" d="m0 0h1l1 1230v109h-2l-1-20v-200z" fill="#FEFEFE"/>
</svg>
