<svg viewBox="0 0 1280 854">
<path transform="translate(0)" d="m0 0h1280v853h-1280z" fill="#FDC200"/>
<path transform="translate(0,640)" d="m0 0h1280v213h-1280z" fill="#C50B1E"/>
<path transform="translate(0)" d="m0 0h1280v213h-1280z" fill="#C50B1E"/>
<path transform="translate(419,304)" d="m0 0h1v10l-1 8 5 4v2h-2l2 7h6l2-7h-2l2-4 2-2v-10l12 1 21 6-2 3 1 4h1l1-5 1 4 3 1-1-3 2-2 2 1 1-3 14 2 13 5 4 4-1 3 4 7-6 2h-2l-1 7 4 1-3 5-5 3-5 4-4 1-1 4h-4l1 4-3 1 1 7-7 3-4 1 43 1v56l9-2 17-1v-30h29v35l6 1 8 4 5 5 1 3-6 15-5 4-8 2v15l14 7 2 2-1 10-2 7-5 4-2 4-3-4v-7l3-5-6-2v37l1 3v4l4 1 1 11 5 1v5l-8-2h-9l-9 2-10-2h-9l-8 2v-5l5-1 1-11 4-1v-6l1-1 1-51-5-2-6-5-1-2 1-14 4-4 7-1v-11l-21 3-6 1 1 22v60l-3 12-5 9-5 6-11 7-11 5-19 5-18 3-16 1-20-2-19-4-21-7-11-7-6-6 1-2v-79l-8-1 1 63 2 10-2-2-2-7v-86l-18-3-9-1v11l7 1 4 2 1 7v10l-7 6-5 2 1 51 1 3v5l4 1v10l6 1v4l-9-1h-9l-10 2-6-2h-11l-6 2-2-1 1-4 6-1v-10l3-2v-6l1-1 1-37-6 3 3 6-1 6-3 3-4-6-3-3-3-13 1-4 8-5 26-11h2l-1-28-14 3-3 1-1 17-10-2-5-5-5-12v-5l7-6 12-5 13-3h7v-30h-19v-1h28v30l17 1 9 2 1-55 1-1 41-1-10-3-1-4 1-4-3-1 1-4-5-1-4-4-5-3-2-3-5-3-1-4h4l-1-7-5-1-3-2 3-5-1-6 13-6 8-2h11l3 1v5h3l1-2 2 3 2-4-3-4 21-6 5-1h7z" fill="#AC1618"/>
<path transform="translate(419,304)" d="m0 0h1v10l-1 8 5 4v2h-2l2 7h6l2-7h-2l2-4 2-2v-10l12 1 21 6-2 3 1 4h1l1-5 1 4 3 1-1-3 2-2 2 1 1-3 14 2 13 5 4 4-1 3 4 7-6 2h-2l-1 7 4 1-3 5-5 3-5 4-4 1-1 4h-4l1 4-3 1 1 7-7 3-4 1 43 1v56l9-2 17-1v-30h29v35l6 1 8 4 5 5 1 3-6 15-5 4-8 2v15l14 7 2 2-1 10-2 7-5 4-2 4-3-4v-7l3-5-6-2v37l1 3v4l4 1 1 11 5 1v5l-8-2h-9l-9 2-10-2h-9l-8 2v-5l5-1 1-11 4-1v-6l1-1 1-51-5-2-6-5-1-2 1-14 4-4 7-1v-11l-21 3-6 1v21l-1 1h-57l-2-12-4-8-4-5-6-4-11-3v-63l6-1v-1l24-2 16-3-5-2-23-3h-39l-22 3-6 2 16 3 24 2v1h-31l-15-4-1-4 1-4-3-1 1-4-5-1-4-4-5-3-2-3-5-3-1-4h4l-1-7-5-1-3-2 3-5-1-6 13-6 8-2h11l3 1v5h3l1-2 2 3 2-4-3-4 21-6 5-1h7z" fill="#AF2528"/>
<path transform="translate(428,385)" d="m0 0h84l1 1v93l-1 1h-57l-2-12-4-8-4-5-6-4-11-3z" fill="#C6BCBE"/>
<path transform="translate(419,304)" d="m0 0h1v10l-1 8 5 4v2h-2l2 7h6l2-7h-2l2-4 2-2v-10l12 1 21 6-2 3 1 4h1l1-5 1 4 3 1-1-3 2-2 2 1 1-3 14 2 13 5 4 4-1 3 4 7-6 2h-2l-1 7 4 1-3 5-4 1-1-2-7 5h-5l-2-2v-3l-7 3-6-1-4-5v-5l-2 1-3 5-4 2-7-1-5-5-4 4h-8l-5-6v-3h-2l-2 6-3 3h-8l-5-4-4 5-7 1-5-3-2-4h-2l-1 6-3 3-6 1-7-3-1 4-1 1-7-1-6-4-4 1-3-5 4-1-1-7-5-1-3-2 3-5-1-6 13-6 8-2h11l3 1v5h3l1-2 2 3 2-4-3-4 21-6 5-1h7z" fill="#AC161A"/>
<path transform="translate(424,265)" d="m0 0h5v4h5l-1 5h-4l2 5 4 5-1 7 2 4 2-1v-4h2v4h3l1-5h2v4h3v-4h3v4h2l1-4 4 1v2l2 1 2 2 1-3v2h4l1 3v2l5-1h11l5 3v2h3l1-4 3 1 1 4 1-3h4v2l4 1-2 2 2 2h2v2l2 1 1 1 2 3v2l5 1-1 2h-3v3h2v2l3 1v4l-2 7h-2v4l-2 1v3l-7 3-1 1h-5v-7l3-2h3l2-1-4-7 1-3-12-6-8-2-10-1-1 2-3 1v3l-4-1-1 3-3-3 1-4 1-1-20-6-12-2 1 10-5 6 3-1-1 6-3 3h-5l-3-6 1-3 2 1v-2l-4-2-2-2 1-10-16 3-16 5 3 4-4 4-1-3-4 1-2-4-1-1h-11l-13 4-6 3h-2l2 3-1 4-2 4 4 2h3l1 1v7h-5l-5-3-4-1v-4l-1-4h3l-2-2h-4l1-2h3v-2l-3 1 1-4-3-1-1-4 4-4 1-2-3-1 5-2 1-2-3-1 7-1 1-2 2 1v-2h-2v-3l4 1h1l1-4 4 1v-2l6-2 4-1 1 4 2-2h3l3-2 8 1v3l-3 1 4-1 4-4 2-4h3 3l6-2 5 2 1-4h2v5h3l1-4h2l1 3 2-1v3l2-2-2-5 1-6 3-3 1-5h-4v-5h4z" fill="#C19121"/>
<path transform="translate(455,488)" d="m0 0h5l1 3 5-2 1-1h6l1 3 4-1 1-2h9l1 2 5-1 1-1h6l2 2v5l-3 1v7l3 1v8l-3 1v7l3 1v5l-2 2v4l2 1v8l-3 2-1 6-1 5-2 2-5 2-2 5-6 3-9-1-1 3-5 1-3-3-6-1-3 1-6-3-2-6-7-3-1-4v-8h-3l-1-9 2-1-2-10 2-2v-7l-2-1 1-3 3-1v2h2l1-4 3-2v8l-2 1-1 7h2v2h6l1-3h8l1 3 3-1-5-6-5-1-4-4v-5l-2-4h4l2 2 5 2 4 5v3l4 5 1-9h-3v-9h3l-3-5-4-1-1 3h-8l1-5 5 1v-2h-4z" fill="#CEAB01"/>
<path transform="translate(540,455)" d="m0 0h1l1 23 18 9v-30h1v31h2v-30h1l1 31 3 1v-14h1l1 15 14 7 2 2-1 10-2 7-5 4-2 4-3-4v-7l3-5-6-2v37l1 3v4l4 1 1 11 5 1v5l-8-2h-9l-9 2-10-2h-9l-8 2v-5l5-1 1-11 4-1v-6l1-1 1-51-5-2-6-5-1-2 1-14 4-4 7-1z" fill="#AD1F22"/>
<path transform="translate(426,343)" d="m0 0h2l3 6 2 2h8l5-4 4 5 7 1 5-3 2-4h2l2 7 5 3 6-1 4-1 2 4 7-1 6-4-1 5-5 4-4 1-1 4h-4l1 4-3 1 1 7-7 3-4 1 43 1v56h-1l-1-54-53-1-25-1v-1l24-2 16-3-5-2-23-3h-39l-22 3-6 2 16 3 24 2v1h-31l-15-4-1-4 1-4-3-1 1-4-5-1-4-4-5-3-2-5h3l6 4h5l2-4 4 1 6 1 5-3 1-7 4 1 3 5 7 1 5-3 3-3 4 4h8l3-3z" fill="#C39607"/>
<path transform="translate(303,499)" d="m0 0h2v44l10 1 1 3v5l4 1v10l6 1v4l-9-1h-9l-10 2-6-2h-11l-6 2-2-1 1-4 6-1v-10l3-2v-6l1-1 1-38z" fill="#C49B03"/>
<path transform="translate(305,455)" d="m0 0h1l1 26 6-2v-14l8 1 4 2 1 7v10l-7 6-5 2v51h-28v-1h19v-44l-25 10v2l2 5-1 6-3 3-4-6-3-3-3-13 1-4 8-5 26-11h2z" fill="#AC1519"/>
<path transform="translate(423,457)" d="m0 0h9l7 4 5 6 3 9v7l-4 11-8 7-3 1h-9l-6-3-6-7-3-8v-9l4-10 8-7z" fill="#005ABE"/>
<path transform="translate(427,544)" d="m0 0 8 16 1 3 3 1 5 5 12 6 11 2 9 1-2 2-14 4-18 3-16 1-20-2-19-4-11-4 3-1h11l12-3 10-6 8-8 5-10z" fill="#BFBCC0"/>
<path transform="translate(285,367)" d="m0 0 4 2 2 3-1 2h2v3l3 1 1-3v3l5-1 2 1 1-3 2 2 3 1v-2l-2-1 2-1 1-4 4-3 5 5-1 4-4 4-1 3-3 2 10 1v11h-4v2h-2v4h2l-1 3h-31l1-6-2-1v-2h-3v-11l7-1-1-6-4-1v-2l-2-1 1-5z" fill="#C8B100"/>
<path transform="translate(363,297)" d="m0 0h3l1 4 2-2h3l3-2 8 1v3l-3 1 4-1 4-4v3l-5 6-2 4v-4h-3l-1 8 1 4 3 1-1 3-2-1h-11l-13 4-6 3h-2l2 3-1 4-2 4 4 2h3l1 1v7h-5l-5-3-4-1v-4l-1-4h3l-2-2h-4l1-2h3v-2l-3 1 1-4-3-1-1-4 4-4 1-2-3-1 5-2 1-2-3-1 7-1 1-2 2 1v-2h-2v-3l4 1h1l1-4 4 1v-2l6-2z" fill="#C18423"/>
<path transform="translate(484,298)" d="m0 0 6 3v2h3l1-4 3 1 1 4 1-3h4v2l4 1-2 2 2 2h2v2l2 1 1 1 2 3v2l5 1-1 2h-3v3h2v2l3 1v4l-2 7h-2v4l-2 1v3l-7 3-1 1h-5v-7l3-2h3l2-1-4-7 1-3-12-6-8-2-10-1 1-9h-3l1-7-1-2 4-1 6 1z" fill="#C18A12"/>
<path transform="translate(540,543)" d="m0 0h29l2 4v4l4 1 1 11 5 1v5l-8-2h-9l-9 2-10-2h-9l-8 2v-5l5-1 1-11 4-1v-6z" fill="#C4A002"/>
<path transform="translate(547,369)" d="m0 0 7 1 1 1 2-2 14 2 2 4-1 3-7 4-1 1 2 1-1 1 9 1v11l-4 1h-32l-3-1v-11l9-1-1-2h4l-6-2-1-2-3-1v-2l-2-1 1-3z" fill="#AC2518"/>
<path transform="translate(380,480)" d="m0 0h9v97h-9z" fill="#C8B100"/>
<path transform="translate(541,494)" d="m0 0 18 8 1 1v40h-19z" fill="#CBCBCB"/>
<path transform="translate(361,480)" d="m0 0h8l1 1v93l-5-1-4-2z" fill="#C8B100"/>
<path transform="translate(303,499)" d="m0 0h2v44h-19v-37l12-5z" fill="#CBCBCB"/>
<path transform="translate(399,484)" d="m0 0h1l3 11 5 7v70l-4 2h-5z" fill="#C7AF00"/>
<path transform="translate(342,480)" d="m0 0h8l1 1v80l-4-2-3-9-2-7z" fill="#C7AF00"/>
<path transform="translate(286,408)" d="m0 0h19v30l-16 3h-3z" fill="#CBCBCB"/>
<path transform="translate(304,454)" d="m0 0h1v29l-16 7h-3v-31l7-3z" fill="#C6C8CB"/>
<path transform="translate(541,408)" d="m0 0h19v31l-19-2z" fill="#CACBCB"/>
<path transform="translate(445,297)" d="m0 0h7l10 3 5 5 2 4-1 8-1 2-8-1-13-4-11-2-1-3v-8l6-3z" fill="#FDC200"/>
<path transform="translate(541,454)" d="m0 0h9l10 2v31l-9-3-10-6z" fill="#CACBCB"/>
<path transform="translate(402,297)" d="m0 0 11 1 6 3v11l-16 3-13 4-4-1-1-2v-9l5-6 7-3z" fill="#FDC200"/>
<path transform="translate(426,343)" d="m0 0h2l3 6 2 2h8l5-4 4 5 7 1 5-3 2-4h2l2 7 5 3 6-1 4-1 2 4 7-1 6-4-1 5-5 4-3 1-6-2-3-3-2 1h-7l-6-4v-2l-6 3h-8l-6-3-4 2h-8l-5-3v-2l-7 5h-8l-5-2-5 3h-8l-6-3-2 4-4 2h-7l-3-1-3 4-6 1-7-4-2-5h3l6 4h5l2-4 4 1 6 1 5-3 1-7 4 1 3 5 7 1 5-3 3-3 4 4h8l3-3z" fill="#C7AC00"/>
<path transform="translate(370,413)" d="m0 0h5v3h18l1-3h5l1 3h5v12h-3v13h-2l-1-7-1-3h-4v-2l3-1-1-2v2h-11v-2h-1v2h-9v3h-4l-2 10h-2v-13h-3v-5l11 1-2 2 3-1v-2l3-1v-2l1-1h-5v4h-5l-3-1v-2h2zm29 10 1 2z" fill="#BF8007"/>
<path transform="translate(475,306)" d="m0 0h13l13 4 6 5 2 8-2 6-13-6-8-2-10-1 1-9h-3z" fill="#FBC103"/>
<path transform="translate(365,306)" d="m0 0h13l-1 8 1 4 3 1-1 3-2-1h-11l-13 4-6 3h-2l-1-2v-8l6-7 9-4z" fill="#FBC203"/>
<path transform="translate(285,367)" d="m0 0 4 2 2 3-1 2h2v3l3 1 1-3v3l5-1 2 1 1-3 2 2 3 1v-2l-2-1 2-1 1-4 4-3 5 5-1 4-4 4-1 3-3 2 9 1v1h-38v-1l6-1-1-6-4-1v-2l-2-1 1-5z" fill="#AD2318"/>
<path transform="translate(418,510)" d="m0 0 9 1v31l-2 11-3 5-4 2z" fill="#C7AB00"/>
<path transform="translate(399,423)" d="m0 0m-12 0 1 2 2 1h-5v2l6-1 5 1v-2l-3-1h6l-2 1v2l2 1-6 1-5-1v2h3l2 2 5 1 1 1v9l-1 1h-6l-2-5v-8h-5l-1 3v-3h-5v9h5l1-3v3l2 1h-5v2h3l-1 4v-3h-5l-1 3v-2h-5l-1 2v-2l-5-2 2-10 2-3h4v-3l4-1 5 1v-2l-3-1h6z" fill="#AF2616"/>
<path transform="translate(474,398)" d="m0 0 7 4 4 4h-2l-1 5 2 5-1 3-2 1-2-1v5l-6 1-1-2-3 2v-4l-6 3v-5l-1-1-4-2 9-2v-4h4l-1-5-3-1v-3z" fill="#C9C7C8"/>
<path transform="translate(536,387)" d="m0 0h37v9h-37z" fill="#C8B100"/>
<path transform="translate(312,494)" d="m0 0h1v49h-7v-45z" fill="#AEBBCA"/>
<path transform="translate(281,396)" d="m0 0h38l-3 1v2h-2v4h2l-1 3h-31l1-6-2-1v-2z" fill="#C29005"/>
<path transform="translate(471,529)" d="m0 0 7 6-1 3 4 5 5 1 4 5v5l-4 2-5 1-3 2v2l-4 1-3-2v-9l3-1v-9h-3z" fill="#AC1419"/>
<path transform="translate(467,529)" d="m0 0h1v12h-3v9h3v10l-4 2-2-1v-3l-9-2-3-1v-7l4-5 5-1 3-3v-5z" fill="#AC1419"/>
<path transform="translate(424,265)" d="m0 0h5v4h5l-1 5h-4l2 5 4 5-1 5-5 4h-5l-5-5 1-6 3-3 1-5h-4v-5h4z" fill="#A58E20"/>
<path transform="translate(539,397)" d="m0 0h31v3l-1 3h2v3h-33z" fill="#C6A601"/>
<path transform="translate(381,448)" d="m0 0 1 2h5l1-2 1 4-3 1 4 4v10h-11l-6-1v-2l-3-1v-2l-3-1v-2l3-1v-3l8-1 1-2z" fill="#BD7409"/>
<path transform="translate(367,445)" d="m0 0 11 1 1-1h11l1 1h6l5-1v8h-6l3 1v3l-9 1-4-3v-2l2-2-1-1h-5l-3 3h-12z" fill="#C6A701"/>
<path transform="translate(284,577)" d="m0 0 9 1 1 1h11l9-2 13 3v5l-7-1-3-1h-7l-6 2h-8l-6-2h-7l-6 2h-4v-5l8-2z" fill="#005BBF"/>
<path transform="translate(284,569)" d="m0 0 9 1 2 1h10l6-2h6l10 3-1 5-7-1-3-1h-7l-6 2h-8l-4-2h-9l-4 2-5-1 1-4z" fill="#005BBF"/>
<path transform="translate(539,569)" d="m0 0h6l5 2h8l8-2 8 1 7 2v5l-9-2h-9l-6 2-10-1-3-1h-7l-9 2v-5z" fill="#005BBF"/>
<path transform="translate(539,577)" d="m0 0 8 1 3 1h10l9-2 12 3v5l-7-1-3-1h-7l-6 2h-8l-5-2h-7l-6 2h-4v-5z" fill="#005BBF"/>
<path transform="translate(338,317)" d="m0 0 3 1 1 9 2 4-1 6 3-2-1 4 4 2h3l1 1v7h-5l-5-3-4-1v-4l-1-4h3l-2-2h-4l1-2h3v-2l-3 1 1-4-3-1-1-4 4-4z" fill="#C09A32"/>
<path transform="translate(474,494)" d="m0 0h5v3h9l1-3h5l-6 8-2 2-5 1-3 3v5l-7 6v-10h3v-9l-3-1 2-4z" fill="#AC1519"/>
<path transform="translate(306,408)" d="m0 0h7v29l-7 1z" fill="#ccc"/>
<path transform="translate(278,563)" d="m0 0h44l4 1v4l-9-1h-9l-10 2-6-2h-11l-6 2-2-1 1-4z" fill="#005BBF"/>
<path transform="translate(533,563)" d="m0 0h43l5 1v5l-8-2h-9l-9 2-10-2h-9l-8 2v-5z" fill="#005BBF"/>
<path transform="translate(426,350)" d="m0 0h2v2l5 2h8l5-2 5 3h8l3-2h3l6 6-12-1-10-1h-44l-17 2h-5l5-4 1-2 6 2h8l6-3 4 2h8z" fill="#AC1519"/>
<path transform="translate(495,498)" d="m0 0h1v5l-3 1v8l3 1v7l-2 2h-6v-3h-9v3h-5l6-7 2-1 3 1 2-4 2-6z" fill="#AC1419"/>
<path transform="translate(445,526)" d="m0 0h6v2l9-1 5-1-5 7-5 1-3 3-1 6-3 3h-4v-5h2l-1-8-2-1 1-5z" fill="#AD1419"/>
<path transform="translate(536,566)" d="m0 0h9l10 2 9-2h9l8 3v3l-7-1-10-1-6 2h-8l-7-2-8 1-7 1 1-4z" fill="#C8B8B8"/>
<path transform="translate(537,574)" d="m0 0h9l5 2h8l6-2h7l9 3v3l-8-1-7-1-6 2h-10l-10-2-7 2h-5v-3z" fill="#C9BBBB"/>
<path transform="translate(306,454)" d="m0 0h7v25l-7 3z" fill="#ADBBCA"/>
<path transform="translate(474,526)" d="m0 0h5v2h9v-2h6l2 2v4l-2 1-1 8 3 1-1 4-4-1-4-5v-3l-3-4-5-1z" fill="#AC1419"/>
<path transform="translate(282,574)" d="m0 0h9l6 2 9-1 3-1h9l8 3v3l-7-1-8-1-6 2h-11l-6-2-14 2v-3z" fill="#C8BABB"/>
<path transform="translate(281,566)" d="m0 0h11l6 2 10-2h9l9 3v3l-7-1-4-1-8 1-2 1h-10l-6-2-8 1-7 1 1-4z" fill="#C8BABB"/>
<path transform="translate(389,298)" d="m0 0m-1 1m-1 1m-1 1 2 3-2 3v9l2 5 2 3-4 4-1-3-4 1v-7l-4-1-1-6 1-4 1-2h4z" fill="#BC9120"/>
<path transform="translate(394,413)" d="m0 0h5l1 3h5v12h-3v13h-2l-1-7-1-3h-4v-2l3-1v-2l-3-2-1-2h-2v-2h2zm5 10 1 2z" fill="#C18E05"/>
<path transform="translate(285,506)" d="m0 0h1v38h29l1 3-2 3v-2h-30v-4z" fill="#C28F05"/>
<path transform="translate(564,505)" d="m0 0 4 1v37h-4z" fill="#ccc"/>
<path transform="translate(540,543)" d="m0 0h29l2 4-2 4v-3h-29l-1 3-1-6z" fill="#BF8307"/>
<path transform="translate(554,360)" d="m0 0 2 1v3l8 1-1 3h-6l-2 5-3-3-10 1-6 1-1 3v-4l2-4 6-1 2 1v-2l7-1z" fill="#CDB304"/>
<path transform="translate(564,408)" d="m0 0h4v33l-4-1z" fill="#ccc"/>
<path transform="translate(447,404)" d="m0 0h2v5l8 6-1 4 4-1 2 1v2l-4 3-4-2-5-2v-5h-2l-1-2-4-2 2-1-1-4h3z" fill="#CBC9C9"/>
<path transform="translate(564,457)" d="m0 0 4 1v32l-4-1z" fill="#C7C9CB"/>
<path transform="translate(284,548)" d="m0 0h30v2l2 1-1 1h-31z" fill="#C7AF00"/>
<path transform="translate(382,455)" d="m0 0 7 1 1 1v10h-11v-9z" fill="#005BBF"/>
<path transform="translate(370,413)" d="m0 0h5v3h13l-1 7-8-1v-2l1-1h-5v4h-5l-3-1v-2h2z" fill="#C6A801"/>
<path transform="translate(540,548)" d="m0 0h29l1 4h-31z" fill="#C8B100"/>
<path transform="translate(427,480)" d="m0 0 2 1 1 4-1 2 4 1v4h-3l1 4-1 2-5-1-2-3 2-2-4-1 1-4h3v-5z" fill="#C39803"/>
<path transform="translate(301,363)" d="m0 0 1 2 7 1 1 2-5 5-4 2h-5l-3-4v-2l-4-2 4-2h5l1 8h2l-1-3h2v-4h-2z" fill="#AC1519"/>
<path transform="translate(436,464)" d="m0 0 3 4-1 4 3-1 2 3-1 2h-4v2h2l-1 4-3 1-2-1v-2h-2v-2l2-1-4-2 2-4h2l1-6z" fill="#C29105"/>
<path transform="translate(418,464)" d="m0 0 2 2v6h4v4h-4v2h2l-1 4-3 1-2-1v-2h-2v-2l2-1-4-2v-3l3-1z" fill="#C29304"/>
<path transform="translate(426,322)" d="m0 0h2l2 6 3-1-1 6-3 3h-5l-3-6 1-3 2 1z" fill="#C7AD00"/>
<path transform="translate(439,575)" d="m0 0 10 1v2l-8 4h-11l-3 3-1-2 1-6h2l1 2z" fill="#015ABD"/>
<path transform="translate(474,391)" d="m0 0h2l1 2h4v3l3-1v4l4 1-1 2 4 2-8 1-9-7z" fill="#AD5723"/>
<path transform="translate(511,338)" d="m0 0h4l-1 7-7 3-1 1h-5v-7l3-2h3z" fill="#C29F11"/>
<path transform="translate(379,432)" d="m0 0h11v9h-11z" fill="#C6A601"/>
<path transform="translate(345,335)" d="m0 0 1 2-1 2 4 2h3l1 1v7h-5l-5-3-4-1 1-3 2-2 2-4z" fill="#C6A302"/>
<path transform="translate(388,429)" d="m0 0h5l5 2 2 3 1 7v4l-4 1-1 2v-2h-5l-1 2v-3l-8-1v-2l9-2 1 4h6v-9l-5-1-2-1v-2h-3z" fill="#B6500F"/>
<path transform="translate(306,408)" d="m0 0h3v30h-3z" fill="#84A4C7"/>
<path transform="translate(393,433)" d="m0 0 5 1 1 1v9l-1 1h-6l-1-1v-9z" fill="#005BBF"/>
<path transform="translate(372,433)" d="m0 0 5 1 1 1v9l-1 1h-6l-1-1v-8z" fill="#025CBF"/>
<path transform="translate(415,334)" d="m0 0 7 1 1 1v6l-5 2h-3v-3l-5-1 1-3z" fill="#C8B100"/>
<path transform="translate(434,334)" d="m0 0h5l1 2 4 2v2l-6 1 1 3-6-1-2-1v-6z" fill="#C8B100"/>
<path transform="translate(559,442)" d="m0 0 7 2 2 3-4 2 2 6h-3l-2-4-3 3-1-1 1-9z" fill="#C78B06"/>
<path transform="translate(364,423)" d="m0 0 11 1-3 2 3 2v3h-4l-2 10h-2v-13h-3z" fill="#C08906"/>
<path transform="translate(409,575)" d="m0 0h10l7 4-1 3h-9l-8-5z" fill="#005BBF"/>
<path transform="translate(499,400)" d="m0 0 2 1-2 5-2 6-3 2v10l1 5-2-1-1-3v-17l2-5z" fill="#ccc"/>
<path transform="translate(428,560)" d="m0 0v3l-3 1v8l2 4-1 4-3-2-1-5h-2l-1-6 5-5z" fill="#C8C5C7"/>
<path transform="translate(493,343)" d="m0 0 6 3 1 4-2 2h-8l-2-4v-3h5z" fill="#C8B100"/>
<path transform="translate(360,343)" d="m0 0 1 2 6 1-3 4v2h-8l-2-2 1-4z" fill="#C8B100"/>
<path transform="translate(428,562)" d="m0 0 3 3v9l-1 3-4-1-2-5 1-7z" fill="#AF2815"/>
<path transform="translate(370,433)" d="m0 0 1 3v8h6l1-11h1v8h5l1-3v3l2 1h-5v2h3l-1 4v-3h-5l-1 3v-2h-5l-1 2v-2l-5-2 2-10z" fill="#AF2815"/>
<path transform="translate(309,366)" d="m0 0h5l-4 6-1 6h-5v-2l-1 2h-7l1-4h6z" fill="#C6AA01"/>
<path transform="translate(361,454)" d="m0 0h8v3h-3v3l3 1v2h-3v3h-5z" fill="#C39704"/>
<path transform="translate(283,445)" d="m0 0h5l1 4-4 4 1 3h-4l-3-9z" fill="#D9B600"/>
<path transform="translate(468,328)" d="m0 0 2 1 1 4 2 1-3 5h-6l-2-6 1-2 3 1z" fill="#C8B100"/>
<path transform="translate(385,328)" d="m0 0 3 2v2h3v6l-4 1-4-1-2-5h2z" fill="#C8B100"/>
<path transform="translate(364,416)" d="m0 0h4l1 4h-2v2l3-1v2h5v-4l6-1v2h-2v2l2 1h-5v2l2 1-6 1-3-2-4-2-1-4z" fill="#B44311"/>
<path transform="translate(394,413)" d="m0 0h5l1 7h2v2l-8 1-3-1v-2h2z" fill="#C6A701"/>
<path transform="translate(377,339)" d="m0 0 7 1 1 5-4 3-3-1-5-2 2-3h2z" fill="#C8B100"/>
<path transform="translate(456,336)" d="m0 0 6 2 1 2-1 4-7 1v-3l-4-1v-2l5-2z" fill="#C8B100"/>
<path transform="translate(390,459)" d="m0 0h2l1 2h11v2h-2v3h-12z" fill="#C29005"/>
<path transform="translate(474,339)" d="m0 0h3v2l4 4-1 1h-5v2l-5-2-1-2 1-4z" fill="#C8B100"/>
<path transform="translate(396,336)" d="m0 0 5 2 2 2-4 4v1l-7-1-1-5z" fill="#C8B100"/>
<path transform="translate(577,449)" d="m0 0h3l-1 12h-3v-5h-8l4-4z" fill="#D5AB01"/>
<path transform="translate(554,360)" d="m0 0 2 1v3l8 1-1 3h-6l-2 5-3-3v-6z" fill="#C18507"/>
<path transform="translate(420,362)" d="m0 0h14v4h-14z" fill="#AC1519"/>
<path transform="translate(470,298)" d="m0 0h14v4h-8l-1 4h-2l-3-4z" fill="#C9B06A"/>
<path transform="translate(376,455)" d="m0 0 4 1-1 10h-6v-2l-3-1v-2l5-2z" fill="#BF8107"/>
<path transform="translate(467,520)" d="m0 0h5l2 2-1 5-5 1-3-5z" fill="#005BBF"/>
<path transform="translate(531,441)" d="m0 0h2l-3 11-4-1-5-7v-2h4l3 5 2 1z" fill="#D6B500"/>
<path transform="translate(313,440)" d="m0 0 1 3-4 9-3-1-5-10h4l3 5 2-2z" fill="#D6B500"/>
<path transform="translate(457,402)" d="m0 0 5 1 5 2 3-1 2 4h-11l-5-5z" fill="#B2121A"/>
<path transform="translate(320,441)" d="m0 0h6l-1 2-4-1 5 5v4l-2 1h-6v-3l1 2h4v-3l-4-2v-4z" fill="#D3B400"/>
<path transform="translate(382,416)" d="m0 0h6l-1 7-8-1v-2h2z" fill="#C8B100"/>
<path transform="translate(545,441)" d="m0 0h10l1 2h-4v7l-1 2h-3l1-10z" fill="#D9B600"/>
<path transform="translate(382,404)" d="m0 0h5v11h-5z" fill="#C18F05"/>
<path transform="translate(566,366)" d="m0 0h4l3 3 2 4-2 4-1-4-1-1-7-1 1-4z" fill="#C9AE09"/>
<path transform="translate(286,366)" d="m0 0 4 1 5 5 1 3-1 3-4-1 1-3h-2l-1-4z" fill="#C6A901"/>
<path transform="translate(400,454)" d="m0 0h8v3l-2 1v2h-9v-2l3-1z" fill="#C49B03"/>
<path transform="translate(381,448)" d="m0 0 1 2h5l1-2 1 4-3 1v2l-6 1-1-2z" fill="#BA6510"/>
<path transform="translate(390,440)" d="m0 0 2 4 7 1-2 1-1 2v-2h-5l-1 2v-3l-8-1v-2z" fill="#B54B10"/>
<path transform="translate(401,416)" d="m0 0h4v9h-5l-1-3h3v-2l-2-1zm-3 7 1 2h-5z" fill="#C08806"/>
<path transform="translate(537,441)" d="m0 0h3v9h4v2h-7z" fill="#D6B500"/>
<path transform="translate(450,363)" d="m0 0 11 1-1 4-9-1-2-1z" fill="#005BBF"/>
<path transform="translate(294,442)" d="m0 0 2 3 1 7 5-1-2 2-6 1-2-11z" fill="#D5B500"/>
<path transform="translate(481,398)" d="m0 0 7 1-1 3 4 2-8 1-3-3z" fill="#B5621B"/>
<path transform="translate(299,359)" d="m0 0h3l-2 7h2l-1 7h-2l-1-2v-11z" fill="#C39504"/>
<path transform="translate(390,451)" d="m0 0 1 2 8 1v3l-9 1-1-5z" fill="#BC710A"/>
<path transform="translate(559,442)" d="m0 0 5 1-3 5 2 1-2 1-2 4-2-1 1-9z" fill="#D8B600"/>
<path transform="translate(291,380)" d="m0 0h7v2l-2 2h-6v2l-3-1-1-4z" fill="#B0981B"/>
<path transform="translate(398,363)" d="m0 0h6l-1 4-9 1-1-4z" fill="#005BBF"/>
<path transform="translate(462,417)" d="m0 0 3 1-1 5 5-2 1 3 3-2v3l-5 2-1-3-5 1v-3l-2-1h2v-2l-2-1z" fill="#AC1519"/>
<path transform="translate(393,421)" d="m0 0 1 2 4 1-5 1v-2l-3-1zm-3 4 6 1v2h-11v-2z" fill="#BC6E0A"/>
<path transform="translate(421,289)" d="m0 0h12l-4 4h-5z" fill="#005BBF"/>
<path transform="translate(364,423)" d="m0 0 11 1-3 2v2h-8z" fill="#C39A03"/>
<path transform="translate(469,299)" d="m0 0 4 5v2h2l-2 9h-1l-2-10-3-5z" fill="#B03014"/>
<path transform="translate(362,460)" d="m0 0 7 1v2h-3v3h-5v-5z" fill="#C18A06"/>
<path transform="translate(389,416)" d="m0 0h3l1 4h-2v2l2 1v2h-5z" fill="#C08507"/>
<path transform="translate(424,493)" d="m0 0h7l-1 5-5-1-2-3z" fill="#B7560E"/>
<path transform="translate(399,456)" d="m0 0 3 2h-5v2l2 1h-6l-1 2v-4l-2-1z" fill="#B02E14"/>
<path transform="translate(376,429)" d="m0 0h5v2h-2l-2 4-5-1-1-3z" fill="#B85B0D"/>
<path transform="translate(548,364)" d="m0 0 4 1 1 2-1 2h-6l-1-4z" fill="#D8B600"/>
<path transform="translate(283,445)" d="m0 0h5l1 4-1 1h-5l-1-3z" fill="#C0710A"/>
<path transform="translate(430,299)" d="m0 0h1v11l-2 1-1-2-3-2h2l2-4z" fill="#B44511"/>
<path transform="translate(442,432)" d="m0 0h3v2l3 1 2 1-1 4-3-1v-4h-5z" fill="#AE1319"/>
<path transform="translate(508,308)" d="m0 0 1 2 2 1 1 1 2 3-3 4-3-6-3-4z" fill="#B02B15"/>
<path transform="translate(517,328)" d="m0 0 3 1-2 7h-3l-1-4 2-3z" fill="#CCC078"/>
<path transform="translate(338,322)" d="m0 0h1v8l-3 2 1-4-3-1v-3h4z" fill="#C65F0D"/>
<path transform="translate(482,367)" d="m0 0 2 4-4 2-4-5z" fill="#AC1519"/>
<path transform="translate(471,319)" d="m0 0h4v3l-3 1v3l-4-1 2-5z" fill="#C9B96E"/>
<path transform="translate(345,308)" d="m0 0 3 2-4 5-2 2v-3l-4-3 7-1z" fill="#C0590E"/>
</svg>
